<svg xmlns="http://www.w3.org/2000/svg" viewBox="0 0 64 64" role="img" aria-label="媒体数据管理">
  <defs>
    <linearGradient id="bg" x1="12" y1="8" x2="54" y2="58" gradientUnits="userSpaceOnUse">
      <stop stop-color="#0ea5a4" />
      <stop offset="1" stop-color="#0f766e" />
    </linearGradient>
    <linearGradient id="film" x1="16" y1="17" x2="48" y2="49" gradientUnits="userSpaceOnUse">
      <stop stop-color="#ecfeff" />
      <stop offset="1" stop-color="#99f6e4" />
    </linearGradient>
  </defs>
  <rect width="64" height="64" rx="14" fill="#0f172a" />
  <rect x="6" y="6" width="52" height="52" rx="12" fill="url(#bg)" />
  <path
    d="M18 18h28a4 4 0 0 1 4 4v20a4 4 0 0 1-4 4H18a4 4 0 0 1-4-4V22a4 4 0 0 1 4-4Zm4 5h-3v4h3v-4Zm0 7h-3v4h3v-4Zm0 7h-3v4h3v-4Zm23-14h-3v4h3v-4Zm0 7h-3v4h3v-4Zm0 7h-3v4h3v-4ZM27 24v16l12-8-12-8Z"
    fill="url(#film)"
  />
</svg>
